STARTFONT 2.1
FONT -lucy-tewii-bold-r-normal--11-80-100-100-c-60-ISO10646-1
SIZE 11 100 100
FONTBOUNDINGBOX 6 13 0 -3
STARTPROPERTIES 22
COPYRIGHT "© lucy <ne.tetewi@gmail.com>"
FOUNDRY "lucy"
FAMILY_NAME "tewii"
WEIGHT_NAME "bold"
SLANT "r"
SETWIDTH_NAME "normal"
ADD_STYLE_NAME ""
PIXEL_SIZE 11
POINT_SIZE 80
RESOLUTION_X 100
RESOLUTION_Y 100
SPACING "c"
AVERAGE_WIDTH 60
CHARSET_REGISTRY "ISO10646"
CHARSET_ENCODING "1"
FONT_ASCENT 9
FONT_DESCENT 3
UNDERLINE_POSITION -1
UNDERLINE_THICKNESS 1
NORM_SPACE 6
FIGURE_WIDTH 6
_GBDFED_INFO "Edited with gbdfed 1.6."
ENDPROPERTIES
CHARS 39
STARTCHAR DIGIT ONE
ENCODING 49
SWIDTH 392 0
DWIDTH 6 0
BBX 4 7 1 0
BITMAP
60
E0
60
60
60
60
60
ENDCHAR
STARTCHAR DIGIT FOUR
ENCODING 52
SWIDTH 392 0
DWIDTH 6 0
BBX 5 7 0 0
BITMAP
10
30
70
B0
F8
30
30
ENDCHAR
STARTCHAR LATIN CAPITAL LETTER I
ENCODING 73
SWIDTH 392 0
DWIDTH 6 0
BBX 2 7 2 0
BITMAP
C0
C0
C0
C0
C0
C0
C0
ENDCHAR
STARTCHAR LATIN CAPITAL LETTER N
ENCODING 78
SWIDTH 392 0
DWIDTH 6 0
BBX 5 7 0 0
BITMAP
88
C8
E8
F8
D8
C8
C8
ENDCHAR
STARTCHAR LATIN CAPITAL LETTER W
ENCODING 87
SWIDTH 392 0
DWIDTH 6 0
BBX 5 7 0 0
BITMAP
D8
D8
D8
F8
F8
D8
88
ENDCHAR
STARTCHAR LATIN SMALL LETTER I
ENCODING 105
SWIDTH 392 0
DWIDTH 6 0
BBX 2 7 2 0
BITMAP
C0
00
C0
C0
C0
C0
C0
ENDCHAR
STARTCHAR LATIN SMALL LETTER J
ENCODING 106
SWIDTH 392 0
DWIDTH 6 0
BBX 4 9 0 -2
BITMAP
30
00
30
30
30
30
30
30
E0
ENDCHAR
STARTCHAR LATIN SMALL LETTER L
ENCODING 108
SWIDTH 392 0
DWIDTH 6 0
BBX 3 7 1 0
BITMAP
C0
C0
C0
C0
C0
C0
60
ENDCHAR
STARTCHAR LATIN CAPITAL LETTER I WITH GRAVE
ENCODING 204
SWIDTH 392 0
DWIDTH 6 0
BBX 3 9 2 0
BITMAP
C0
60
C0
C0
C0
C0
C0
C0
C0
ENDCHAR
STARTCHAR LATIN CAPITAL LETTER I WITH ACUTE
ENCODING 205
SWIDTH 392 0
DWIDTH 6 0
BBX 3 9 1 0
BITMAP
60
C0
60
60
60
60
60
60
60
ENDCHAR
STARTCHAR LATIN CAPITAL LETTER I WITH CIRCUMFLEX
ENCODING 206
SWIDTH 392 0
DWIDTH 6 0
BBX 3 9 1 0
BITMAP
40
A0
60
60
60
60
60
60
60
ENDCHAR
STARTCHAR LATIN CAPITAL LETTER I WITH DIAERESIS
ENCODING 207
SWIDTH 392 0
DWIDTH 6 0
BBX 3 9 1 0
BITMAP
A0
00
60
60
60
60
60
60
60
ENDCHAR
STARTCHAR LATIN SMALL LETTER I WITH GRAVE
ENCODING 236
SWIDTH 392 0
DWIDTH 6 0
BBX 3 8 1 0
BITMAP
C0
60
00
60
60
60
60
60
ENDCHAR
STARTCHAR LATIN SMALL LETTER I WITH ACUTE
ENCODING 237
SWIDTH 392 0
DWIDTH 6 0
BBX 3 8 2 0
BITMAP
60
C0
00
C0
C0
C0
C0
C0
ENDCHAR
STARTCHAR LATIN SMALL LETTER I WITH CIRCUMFLEX
ENCODING 238
SWIDTH 392 0
DWIDTH 6 0
BBX 4 8 1 0
BITMAP
60
F0
00
60
60
60
60
60
ENDCHAR
STARTCHAR LATIN SMALL LETTER I WITH DIAERESIS
ENCODING 239
SWIDTH 392 0
DWIDTH 6 0
BBX 5 7 0 0
BITMAP
D8
00
30
30
30
30
30
ENDCHAR
STARTCHAR LATIN CAPITAL LETTER I WITH TILDE
ENCODING 296
SWIDTH 392 0
DWIDTH 6 0
BBX 5 9 0 0
BITMAP
68
B0
00
30
30
30
30
30
30
ENDCHAR
STARTCHAR LATIN SMALL LETTER I WITH TILDE
ENCODING 297
SWIDTH 392 0
DWIDTH 6 0
BBX 5 8 0 0
BITMAP
68
B0
00
30
30
30
30
30
ENDCHAR
STARTCHAR LATIN CAPITAL LETTER I WITH MACRON
ENCODING 298
SWIDTH 392 0
DWIDTH 6 0
BBX 3 9 1 0
BITMAP
E0
00
60
60
60
60
60
60
60
ENDCHAR
STARTCHAR LATIN SMALL LETTER I WITH MACRON
ENCODING 299
SWIDTH 392 0
DWIDTH 6 0
BBX 3 7 1 0
BITMAP
E0
00
60
60
60
60
60
ENDCHAR
STARTCHAR LATIN CAPITAL LETTER I WITH BREVE
ENCODING 300
SWIDTH 392 0
DWIDTH 6 0
BBX 5 9 0 0
BITMAP
C8
70
00
30
30
30
30
30
30
ENDCHAR
STARTCHAR LATIN SMALL LETTER I WITH BREVE
ENCODING 301
SWIDTH 392 0
DWIDTH 6 0
BBX 5 8 0 0
BITMAP
C8
70
00
30
30
30
30
30
ENDCHAR
STARTCHAR LATIN CAPITAL LETTER I WITH OGONEK
ENCODING 302
SWIDTH 392 0
DWIDTH 6 0
BBX 3 9 1 -2
BITMAP
60
60
60
60
60
60
60
C0
60
ENDCHAR
STARTCHAR LATIN SMALL LETTER I WITH OGONEK
ENCODING 303
SWIDTH 392 0
DWIDTH 6 0
BBX 3 9 1 -2
BITMAP
60
00
60
60
60
60
60
C0
60
ENDCHAR
STARTCHAR LATIN CAPITAL LETTER I WITH DOT ABOVE
ENCODING 304
SWIDTH 392 0
DWIDTH 6 0
BBX 2 9 2 0
BITMAP
C0
00
C0
C0
C0
C0
C0
C0
C0
ENDCHAR
STARTCHAR LATIN SMALL LETTER DOTLESS I
ENCODING 305
SWIDTH 392 0
DWIDTH 6 0
BBX 2 5 2 0
BITMAP
C0
C0
C0
C0
C0
ENDCHAR
STARTCHAR LATIN SMALL LETTER J WITH CIRCUMFLEX
ENCODING 309
SWIDTH 392 0
DWIDTH 6 0
BBX 4 10 0 -2
BITMAP
20
50
00
30
30
30
30
30
30
E0
ENDCHAR
STARTCHAR LATIN SMALL LETTER L WITH ACUTE
ENCODING 314
SWIDTH 392 0
DWIDTH 6 0
BBX 4 9 1 0
BITMAP
30
60
C0
C0
C0
C0
C0
C0
60
ENDCHAR
STARTCHAR LATIN SMALL LETTER L WITH CEDILLA
ENCODING 316
SWIDTH 392 0
DWIDTH 6 0
BBX 3 9 2 -2
BITMAP
C0
C0
C0
C0
C0
C0
60
60
C0
ENDCHAR
STARTCHAR LATIN SMALL LETTER L WITH CARON
ENCODING 318
SWIDTH 392 0
DWIDTH 6 0
BBX 4 9 2 0
BITMAP
30
10
C0
C0
C0
C0
C0
C0
60
ENDCHAR
STARTCHAR LATIN SMALL LETTER L WITH MIDDLE DOT
ENCODING 320
SWIDTH 392 0
DWIDTH 6 0
BBX 5 7 1 0
BITMAP
C0
C0
C0
D8
C0
C0
60
ENDCHAR
STARTCHAR LATIN SMALL LETTER L WITH STROKE
ENCODING 322
SWIDTH 392 0
DWIDTH 6 0
BBX 4 7 1 0
BITMAP
60
60
70
60
E0
60
30
ENDCHAR
STARTCHAR LATIN CAPITAL LETTER N WITH ACUTE
ENCODING 323
SWIDTH 392 0
DWIDTH 6 0
BBX 5 9 0 0
BITMAP
18
30
C8
C8
E8
F8
D8
C8
C8
ENDCHAR
STARTCHAR LATIN CAPITAL LETTER N WITH CEDILLA
ENCODING 325
SWIDTH 392 0
DWIDTH 6 0
BBX 5 9 0 -2
BITMAP
C8
C8
E8
F8
D8
C8
C8
30
60
ENDCHAR
STARTCHAR LATIN CAPITAL LETTER N WITH CARON
ENCODING 327
SWIDTH 392 0
DWIDTH 6 0
BBX 5 9 0 0
BITMAP
50
20
C8
C8
E8
F8
D8
C8
C8
ENDCHAR
STARTCHAR LATIN CAPITAL LETTER ENG
ENCODING 330
SWIDTH 392 0
DWIDTH 6 0
BBX 5 9 0 -2
BITMAP
C8
C8
E8
F8
D8
C8
C8
30
60
ENDCHAR
STARTCHAR LATIN CAPITAL LETTER I WITH STROKE
ENCODING 407
SWIDTH 392 0
DWIDTH 6 0
BBX 4 7 1 0
BITMAP
60
60
60
F0
60
60
60
ENDCHAR
STARTCHAR LATIN SMALL LETTER L WITH BAR
ENCODING 410
SWIDTH 392 0
DWIDTH 6 0
BBX 4 7 1 0
BITMAP
60
60
60
F0
60
60
30
ENDCHAR
STARTCHAR LATIN CAPITAL LETTER N WITH LEFT HOOK
ENCODING 413
SWIDTH 392 0
DWIDTH 6 0
BBX 6 8 0 -1
BITMAP
44
64
74
7C
6C
64
64
80
ENDCHAR
ENDFONT
